<svg width="28" height="28" viewBox="0 0 28 28" fill="none" xmlns="http://www.w3.org/2000/svg">
<g clip-path="url(#clip0_21315_13813)">
<path d="M18.6488 6.7482C18.6488 4.3103 16.5594 2.33398 13.9821 2.33398C11.4048 2.33398 9.31543 4.3103 9.31543 6.7482" stroke="black" stroke-width="1.2" stroke-linejoin="round"/>
<path d="M18.6479 6.65039L18.6479 11.0837" stroke="black" stroke-width="1.2" stroke-linecap="round" stroke-linejoin="round"/>
<path d="M9.31543 6.65039V11.0837" stroke="black" stroke-width="1.2" stroke-linecap="round" stroke-linejoin="round"/>
<path d="M4.6665 7.70508V15.1662C4.6665 18.2755 4.6665 19.8302 5.22877 21.0359C5.8249 22.3141 6.85229 23.3415 8.13055 23.9376C9.33619 24.4999 10.8909 24.4999 14.0002 24.4999C17.1089 24.4999 18.6632 24.4999 19.8686 23.9379C21.1473 23.3417 22.175 22.314 22.7711 21.0354C23.3332 19.8299 23.3332 18.2756 23.3332 15.1669V7.70508H19.3029H9.75741H4.6665Z" stroke="black" stroke-width="1.2" stroke-linecap="square"/>
</g>
<defs>
<clipPath id="clip0_21315_13813">
<rect width="28" height="28" fill="white"/>
</clipPath>
</defs>
</svg>
